<svg width="63" height="64" viewBox="0 0 63 64" fill="none" xmlns="http://www.w3.org/2000/svg">
<g id="Group 37">
<path id="Vector" fill-rule="evenodd" clip-rule="evenodd" d="M62.9483 43.9609C62.9483 57.1662 49.8444 63.1024 31.4998 63.1024C13.1552 63.1024 0.0512695 57.1662 0.0512695 44.0542C0.0512695 29.6981 7.91462 22.4245 23.6364 15.1509L18.0698 5.68241C17.7377 5.20816 17.5527 4.66049 17.5347 4.09779C17.5166 3.5351 17.6662 2.97848 17.9674 2.48729C18.2685 1.99611 18.71 1.58877 19.2448 1.30871C19.7796 1.02865 20.3876 0.886369 21.004 0.897044H43.2267C43.8044 0.910542 44.3689 1.05805 44.867 1.32569C45.3651 1.59333 45.7804 1.9723 46.0739 2.42692C46.3674 2.88155 46.5293 3.39688 46.5445 3.92443C46.5598 4.45197 46.4277 4.97438 46.1609 5.44248L39.3631 15.1509C55.0801 22.3268 62.9483 29.6004 62.9483 43.9609ZM34.541 22.6111C34.541 21.8746 34.2206 21.1683 33.6503 20.6475C33.0799 20.1267 32.3064 19.8341 31.4998 19.8341C30.6932 19.8341 29.9197 20.1267 29.3493 20.6475C28.779 21.1683 28.4586 21.8746 28.4586 22.6111V25.3971C26.3973 25.4696 24.4359 26.2267 22.9428 27.5264C21.4496 28.826 20.5274 30.5787 20.3494 32.4553C20.1714 34.3319 20.7497 36.2033 21.9759 37.718C23.202 39.2328 24.9916 40.2867 27.0085 40.6818L34.1761 42.1125C34.9107 42.2569 35.5608 42.6446 36.0009 43.2008C36.4411 43.7569 36.6402 44.4422 36.5598 45.1244C36.4794 45.8067 36.1252 46.4376 35.5655 46.8955C35.0059 47.3535 34.2804 47.606 33.5289 47.6044H29.4707C28.8416 47.6053 28.2276 47.428 27.7134 47.0969C27.1993 46.7659 26.8102 46.2974 26.5998 45.756C26.4769 45.4007 26.2771 45.0717 26.0121 44.7885C25.7471 44.5052 25.4224 44.2736 25.0573 44.1073C24.6922 43.941 24.2943 43.8435 23.8871 43.8205C23.4799 43.7976 23.0718 43.8497 22.6871 43.9737C22.3024 44.0978 21.949 44.2912 21.6479 44.5426C21.3468 44.7939 21.1041 45.098 20.9343 45.4368C20.7646 45.7755 20.6712 46.142 20.6598 46.5144C20.6483 46.8868 20.719 47.2574 20.8677 47.6044C21.4397 49.08 22.4549 50.3789 23.7973 51.3524C25.1397 52.3259 26.755 52.9349 28.4586 53.1095V55.9354C28.4586 56.6719 28.779 57.3783 29.3493 57.8991C29.9197 58.4199 30.6932 58.7124 31.4998 58.7124C32.3064 58.7124 33.0799 58.4199 33.6503 57.8991C34.2206 57.3783 34.541 56.6719 34.541 55.9354V53.1095C36.6881 52.8867 38.679 51.9755 40.1595 50.5381C41.64 49.1007 42.514 47.2304 42.6261 45.2598C42.7382 43.2892 42.0811 41.3462 40.7717 39.7765C39.4623 38.2068 37.5855 37.1121 35.4753 36.6873L28.3077 35.2566C27.7262 35.1479 27.21 34.845 26.86 34.4073C26.5101 33.9695 26.3515 33.4282 26.4154 32.8893C26.4793 32.3505 26.761 31.8527 27.2055 31.4935C27.6499 31.1342 28.2251 30.9392 28.8187 30.9467H33.5289C34.1585 30.9438 34.7735 31.1203 35.2881 31.4516C35.8026 31.7829 36.1913 32.2525 36.3998 32.795C36.6828 33.4722 37.2445 34.0215 37.965 34.3256C38.6855 34.6297 39.5077 34.6646 40.256 34.4227C41.0042 34.1808 41.6193 33.6814 41.9698 33.0311C42.3203 32.3808 42.3784 31.6312 42.1319 30.9422C41.5606 29.4666 40.5455 28.1678 39.2029 27.1949C37.8603 26.222 36.2445 25.6143 34.541 25.4415V22.6111Z" fill="#28348A"/>
</g>
</svg>
