<svg width="65" height="66" viewBox="0 0 65 66" fill="none" xmlns="http://www.w3.org/2000/svg">
<path id="Vector" fill-rule="evenodd" clip-rule="evenodd" d="M45.8952 0.574219C47.4934 0.574219 48.7905 1.87128 48.7905 3.46944V7.26797C48.7905 8.03583 48.4854 8.77224 47.9425 9.3152C47.3995 9.85816 46.6631 10.1632 45.8952 10.1632C45.1274 10.1632 44.391 9.85816 43.848 9.3152C43.3051 8.77224 43 8.03583 43 7.26797V3.46944C43 1.87128 44.2971 0.574219 45.8952 0.574219ZM18.8423 41.0517C20.3389 41.0821 21.8264 40.8136 23.2179 40.2618C24.6093 39.7101 25.8767 38.8864 26.9458 37.8387C28.015 36.7911 28.8643 35.5407 29.4441 34.1607C30.0239 32.7807 30.3226 31.2989 30.3226 29.8021C30.3226 28.3052 30.0239 26.8234 29.4441 25.4434C28.8643 24.0634 28.015 22.813 26.9458 21.7654C25.8767 20.7178 24.6093 19.894 23.2179 19.3422C21.8264 18.7905 20.3389 18.522 18.8423 18.5524C15.8983 18.6121 13.0949 19.8236 11.034 21.9268C8.973 24.03 7.81865 26.8574 7.81865 29.8021C7.81865 32.7467 8.973 35.5741 11.034 37.6773C13.0949 39.7805 15.8983 40.992 18.8423 41.0517ZM0.0952148 63.5511C0.172577 58.6294 2.18198 53.9356 5.68977 50.4825C9.19755 47.0294 13.9224 45.094 18.8446 45.094C23.7669 45.094 28.4917 47.0294 31.9995 50.4825C35.5073 53.9356 37.5167 58.6294 37.5941 63.5511C37.5941 64.0486 37.3964 64.5258 37.0446 64.8777C36.6927 65.2295 36.2155 65.4272 35.718 65.4272H1.97132C1.47374 65.4272 0.996549 65.2295 0.644712 64.8777C0.292875 64.5258 0.0952148 64.0486 0.0952148 63.5511ZM63.6325 12.1227C63.9508 11.9072 64.223 11.6306 64.4332 11.3089C64.6434 10.9871 64.7875 10.6268 64.857 10.2488C64.9266 9.8708 64.9201 9.48276 64.8381 9.10728C64.7561 8.73181 64.6002 8.37642 64.3794 8.06184C64.1586 7.74726 63.8774 7.47979 63.5521 7.27503C63.2269 7.07026 62.8641 6.9323 62.485 6.86918C62.1059 6.80607 61.718 6.81906 61.344 6.90741C60.97 6.99576 60.6173 7.1577 60.3065 7.38378L57.1982 9.56562C56.5841 10.0123 56.1701 10.6824 56.0454 11.4315C55.9207 12.1805 56.0952 12.9486 56.5315 13.5702C56.9677 14.1917 57.6307 14.617 58.3776 14.7544C59.1244 14.8918 59.8953 14.7302 60.5242 14.3045L63.6325 12.1227ZM27.44 8.09253C26.9995 8.72053 26.8263 9.49765 26.9583 10.2533C27.0903 11.0089 27.5168 11.6812 28.1441 12.1227L31.257 14.3045C31.5678 14.5306 31.9205 14.6925 32.2946 14.7809C32.6686 14.8692 33.0565 14.8822 33.4356 14.8191C33.8147 14.756 34.1774 14.618 34.5027 14.4133C34.8279 14.2085 35.1091 13.941 35.3299 13.6264C35.5507 13.3119 35.7066 12.9565 35.7887 12.581C35.8707 12.2055 35.8771 11.8175 35.8076 11.4395C35.7381 11.0615 35.594 10.7011 35.3837 10.3794C35.1735 10.0577 34.9013 9.78105 34.583 9.56562L31.4701 7.38378C30.8421 6.94333 30.065 6.77009 29.3094 6.90211C28.5538 7.03412 27.8814 7.4606 27.44 8.08789V8.09253ZM45.6775 13.7301C47.0489 13.7154 48.4097 13.9718 49.6818 14.4845C50.9538 14.9972 52.1121 15.7561 53.09 16.7177C54.0679 17.6793 54.8463 18.8246 55.3804 20.0878C55.9145 21.351 56.1938 22.7073 56.2022 24.0788C56.1559 27.8773 53.886 31.4905 50.4859 33.186V38.3418C50.4786 38.6416 50.3544 38.9268 50.1398 39.1362C49.9251 39.3457 49.637 39.4629 49.3371 39.4628H42.4441C42.1442 39.4629 41.8561 39.3457 41.6415 39.1362C41.4268 38.9268 41.3026 38.6416 41.2953 38.3418V33.274C39.6603 32.4407 38.273 31.1925 37.2722 29.6543C36.2714 28.1161 35.6923 26.342 35.5929 24.5096C35.544 23.1388 35.7665 21.7719 36.2474 20.4874C36.7283 19.2029 37.4583 18.026 38.3953 17.0243C39.3324 16.0227 40.4581 15.2161 41.7078 14.6507C42.9575 14.0854 44.3066 13.7726 45.6775 13.7301Z" fill="#28348A"/>
</svg>
