<svg width="71" height="68" viewBox="0 0 71 68" fill="none" xmlns="http://www.w3.org/2000/svg">
<g id="Group 36">
<path id="Vector" d="M67.262 40.1362C66.5088 39.4111 65.6452 38.8851 64.724 38.5901C63.8028 38.2952 62.8431 38.2375 61.9035 38.4206C67.311 31.6016 70.0464 24.8222 70.0464 18.1758C70.0464 8.65577 63.9162 0.912447 56.3809 0.912447C54.3815 0.896764 52.4035 1.42792 50.5859 2.46862C48.7684 3.50932 47.1552 5.03435 45.8596 6.93663C44.5641 5.03435 42.9509 3.50932 41.1333 2.46862C39.3158 1.42792 37.3378 0.896764 35.3384 0.912447C27.8031 0.912447 21.6729 8.65577 21.6729 18.1758C21.6729 22.132 22.6058 25.9767 24.5695 30.0443C22.9612 30.5533 21.4935 31.5973 20.3225 33.0654L13.8093 41.1936H5.5484C4.32655 41.1936 3.15474 41.7998 2.29076 42.879C1.42679 43.9582 0.941406 45.4218 0.941406 46.948L0.941406 61.3341C0.941406 62.8603 1.42679 64.324 2.29076 65.4031C3.15474 66.4823 4.32655 67.0886 5.5484 67.0886H35.4939C35.6822 67.0887 35.8699 67.0597 36.0525 67.0023L54.4805 61.2478C54.5979 61.2129 54.7126 61.1647 54.8231 61.104L66.0153 55.1553L66.142 55.0834C67.2176 54.412 68.1387 53.4097 68.8185 52.1707C69.4983 50.9318 69.9144 49.4972 70.0276 48.0019C70.1408 46.5066 69.9474 45 69.4655 43.6238C68.9837 42.2477 68.2294 41.0475 67.2735 40.1362H67.262ZM64.1235 49.9008L53.1819 55.7199L35.206 61.3341H17.0659V45.2612L23.5819 37.1259C24.0082 36.5892 24.5156 36.1637 25.0746 35.8742C25.6337 35.5846 26.2333 35.4367 26.8385 35.4391H41.2526C42.169 35.4391 43.0479 35.8938 43.6959 36.7032C44.3439 37.5126 44.7079 38.6103 44.7079 39.755C44.7079 40.8996 44.3439 41.9973 43.6959 42.8067C43.0479 43.6161 42.169 44.0708 41.2526 44.0708H33.1904C32.5795 44.0708 31.9936 44.3739 31.5616 44.9135C31.1296 45.4531 30.8869 46.1849 30.8869 46.948C30.8869 47.7111 31.1296 48.4429 31.5616 48.9825C31.9936 49.5221 32.5795 49.8252 33.1904 49.8252H42.4044C42.5778 49.8246 42.7506 49.8005 42.9198 49.7533L62.2116 44.2111L62.3009 44.1823C62.8898 43.9781 63.5184 44.0531 64.0656 44.393C64.6129 44.7328 65.0403 45.3135 65.2654 46.0232C65.4905 46.733 65.4976 47.5216 65.2852 48.2375C65.0728 48.9533 64.6559 49.5457 64.1149 49.9008H64.1235Z" fill="#28348A"/>
</g>
</svg>
